<?xml version="1.0" encoding="utf-8"?>
<svg version="1.1" id="Layer_1" xmlns="http://www.w3.org/2000/svg" xmlns:xlink="http://www.w3.org/1999/xlink" x="0px" y="0px"
	 viewBox="549 97 2058 367" enable-background="new 549 97 2058 367" xml:space="preserve">
<g>
	<path class="guru" fill="#0099FF" d="M1604.6,227.8c-5.5,0-11-0.2-16.5,0.1c-3.5,0.2-5.2-1-6.8-4.2c-15.1-29.9-38.2-49.9-71.8-55.3
		c-36.4-5.8-67,6.2-91.6,33.2c-45,49.3-35.3,130.8,19.8,168.3c52.8,35.9,122.5,14,146.9-46.3c4.8-11.8,7.9-24.1,8.4-36.8
		c0.2-4,1.5-5.3,5.6-5.2c10,0.3,20,0.2,30,0c3,0,4,0.9,4,4c-0.7,70.7-49.6,130-116.1,140.7c-65.1,10.5-127.3-24.2-154.6-85.5
		c-26.1-58.7-13.4-129,31.5-173.4c72.2-71.4,188.5-48.2,228.4,45.4c1.6,3.7,2.6,7.5,4.3,11.2c1.6,3.5,0.1,3.9-2.9,3.9
		C1617,227.7,1610.8,227.8,1604.6,227.8L1604.6,227.8z M2327.5,347h17.5c1.9,0,3.2,0.4,3.6,2.5c4.4,21.1,19.3,31,38.8,35.2
		c15.1,3.3,30.1,2.4,44.6-3.4c5.8-2.3,10.8-5.8,14.9-10.6c10.5-12.3,7.2-27.9-7.4-34.6c-13-6-27.1-7.7-41.1-9.8
		c-15.6-2.3-31.2-5.1-46.1-10.7c-19.6-7.4-34.3-19.3-37.3-41.4c-3.1-23.1,4.6-42.3,22.8-57c13-10.4,28.2-15.5,44.5-17.4
		c23.6-2.8,46.6-1,68,10.5c22.9,12.3,35,31.9,37.9,57.5c0.3,2.2-0.3,3.1-2.5,3.1h-36c-1.8,0-2.6-0.9-3-2.6
		c-4.5-19.2-18.2-27.9-36.4-30.5c-12.8-1.9-25.6-0.8-37.7,4.5c-4.8,2.1-9.1,4.9-12.5,8.9c-8.2,9.6-5.8,21.1,5.8,26
		c12.2,5.2,25.3,7,38.2,9.1c16.1,2.7,32,5.8,47.6,10.7c54.7,17.2,48.2,82.7,18.8,106.6c-16.3,13.3-35,19.5-55.5,21.1
		c-24.6,1.9-48.2-1.5-69.7-14.5c-22.3-13.6-34.7-33.8-38.4-59.6c-0.4-2.6,0.2-3.6,3-3.5C2315.8,347.2,2321.6,347,2327.5,347
		L2327.5,347z M1797.6,405.1c-11.4,10.3-23.2,17.2-36.9,20.5c-33.2,8-74-1.8-93.4-39.2c-7.8-15.1-11-31.4-11-48.2
		c-0.2-42,0-84-0.1-125.9c0-3.8,0.8-5.2,4.9-5.1c10.3,0.3,20.7,0.3,31,0c4.2-0.1,4.8,1.4,4.8,5.1c-0.1,40.6-0.1,81.3-0.1,121.9
		c0,9.4,0.7,18.6,4,27.5c7,18.6,23.5,29,45.3,28.6c29-0.6,50.1-22.2,50.1-51.2c0-42,0.1-84-0.1-125.9c0-4.9,1.4-6.1,6.1-6
		c10,0.4,20,0.3,30,0c4.4-0.1,5.5,1,5.5,5.5c-0.2,64.5-0.1,128.9-0.1,193.4c0,4.5-0.2,9,0.1,13.5c0.1,2.9-0.9,3.7-3.7,3.6
		c-11-0.1-22-0.1-33,0c-2.6,0-3.5-0.7-3.4-3.4C1797.8,415.5,1797.6,411,1797.6,405.1L1797.6,405.1z M2238,405
		c-12.5,11.6-26,18.9-41.7,21.6c-41.2,7.2-86.9-10.9-97.5-66.4c-1.6-8.2-2.1-16.5-2.1-24.8c0-41,0.1-82-0.1-123
		c0-4.2,1.1-5.3,5.3-5.2c10.2,0.3,20.3,0.3,30.5,0c3.9-0.1,5,1.1,5,5c-0.1,42.2-0.1,84.3-0.1,126.5c0,12.9,2.5,25.3,11,35.5
		c12.1,14.6,28.4,18.2,46.1,15.2c26.2-4.4,42.4-24.5,42.5-51.3c0.1-41.8,0.1-83.6-0.1-125.5c0-4.3,0.9-5.7,5.4-5.5
		c10.5,0.4,21,0.2,31.5,0.1c3.1,0,4.3,0.6,4.3,4.1c-0.1,69.3-0.1,138.6,0,207.9c0,2.9-0.6,4-3.8,4c-10.8-0.2-21.7-0.2-32.5,0
		c-2.8,0-3.8-0.8-3.7-3.7C2238.1,415.1,2238,410.7,2238,405L2238,405z"/>
	<path class="guru" fill="#0099FF" d="M1930,225.4c8.2-7.4,16.2-13.2,25.5-17c41.1-16.6,103.4-3.1,114.3,65.2c1.8,11.4,1.3,22.9,1.5,34.4
		c0,2.7-0.9,3.4-3.5,3.4c-11.2-0.1-22.3-0.1-33.5,0c-2.9,0-3.6-1-3.6-3.7c0.1-9.6,0.7-19.3-1.3-28.9c-4.8-23.3-20.7-37.4-43.3-38.4
		c-24.7-1.1-45.2,12.3-52.2,34.3c-1.8,5.7-2.6,11.7-2.6,17.7c0,41.8-0.1,83.6,0.1,125.4c0,4.3-0.9,5.7-5.4,5.5
		c-10.3-0.4-20.7-0.2-31-0.1c-3.3,0.1-4.6-0.5-4.6-4.2c0.1-69.1,0.1-138.3,0-207.4c0-3.1,0.7-4.4,4.1-4.3c10.5,0.2,21,0.2,31.5,0
		c3.5-0.1,4.3,1.2,4.1,4.3C1929.8,215.8,1930,219.9,1930,225.4L1930,225.4z M1528.8,281.6c15,0,30,0.1,45,0c2.8,0,4.4,0.3,3.9,3.8
		c-1.3,9.8-3.1,19.4-6.6,28.6c-1.2,3.2-3,4.2-6.3,4.2c-27.2-0.1-54.3-0.1-81.5,0c-3.3,0-4.7-0.5-4.6-4.3c0.3-9.3,0.3-18.7,0-28
		c-0.1-3.7,1.3-4.3,4.6-4.3C1498.5,281.7,1513.6,281.6,1528.8,281.6L1528.8,281.6z M1508,240.9c-0.1,9-7.4,16.3-16.3,16.1
		c-8.9-0.2-16.1-7.8-15.9-16.6c0.2-8.7,7.4-15.8,16.1-15.7C1501,224.7,1508,231.8,1508,240.9L1508,240.9z M1569.3,240.9
		c-0.1,8.9-7.7,16.2-16.4,16.1c-8.7-0.1-16.1-7.9-15.9-16.6c0.2-8.6,7.5-15.7,16.2-15.8C1562,224.6,1569.4,232,1569.3,240.9
		L1569.3,240.9z"/>
</g>
<g>
	<path class="car" fill="#FF3333" d="M835.4,228.2c-6.5,0-13.6,1.7-19.3-0.5c-5.9-2.2-6.5-10.5-9.9-15.8c-29.8-46.9-92.3-59.1-138.3-26.8
		c-62.4,43.7-61.9,143,1,186c49.2,33.7,115.2,16.6,142.2-36.9c2.6-5.2,5.2-7.3,11.1-6.9c10.5,0.6,21,0.2,31.5,0.1
		c2.6,0,3.6,0.3,2.6,3.3c-17.1,53-60.6,90.6-116.8,96.7c-68.3,7.4-129.4-35.5-149.8-98.1c-20.4-62.8-7.5-119,40.8-164.9
		c53.8-51.3,141.4-48.6,193.3,4.7c15.2,15.7,25.5,34.3,32.2,55.1c1.2,3.6,0.2,4.2-3.1,4.1C847.1,228,841.3,228.2,835.4,228.2z
		 M1051.2,235c0-8.6,0.2-15.9-0.1-23.2c-0.1-3.5,1-4.5,4.5-4.5c10.3,0.2,20.7,0.2,31,0c3,0,4.4,0.5,4.4,4c-0.1,69.3-0.1,138.7,0,208
		c0,3-0.7,4-3.8,4c-10.7-0.2-21.3-0.2-32,0c-3.6,0.1-4.1-1.4-4-4.4c0.1-7.4,0-14.8,0-23.4c-6.4,6.5-11.7,12.2-18.2,16.5
		c-35.1,23.4-70.9,21.6-105.9,1c-32.6-19.3-49.4-49.7-52.4-87.2c-3.1-37.9,8.5-70.7,36.8-96.7c29.9-27.4,73.4-34.6,107.8-18.6
		c5.9,2.8,11.4,6.2,16.6,10.2C1041.1,224.6,1045.7,229.2,1051.2,235L1051.2,235z M915.3,315.7c-0.2,12.9,2.8,25.1,8.7,36.5
		c21.7,41.7,74.1,49.5,105.4,15.8c28.2-30.5,27.2-77.5-2.2-106.9c-25.2-25.1-61.8-26.1-87.9-2C922.9,274.2,915.7,293.5,915.3,315.7z
		 M1183.6,225.5c13.8-13,29-20.6,46.8-22.7c42.2-4.9,82.2,16,92.3,67c2.5,12.7,2.2,25.5,2.2,38.3c0,2.3-0.6,3.2-3.1,3.2
		c-11.5-0.1-23-0.1-34.5,0c-3.4,0-3.2-1.9-3.2-4.1c-0.1-9.1,0.7-18.3-1-27.4c-5-25.9-22.1-39.8-48.4-39.5
		c-24.7,0.3-45.1,17.6-49,41.6c-0.7,4-1,7.9-1,11.9c0,41.5,0,83,0.1,124.5c0,3.8-0.8,5.1-4.8,5c-10.8-0.3-21.7-0.2-32.5,0
		c-3.2,0.1-3.8-0.9-3.8-3.9c0.1-69.3,0.1-138.6,0-208c0-2.8,0.4-4.2,3.7-4.1c10.8,0.2,21.7,0.2,32.5,0c2.8,0,3.9,0.7,3.7,3.6
		C1183.5,215.4,1183.6,219.9,1183.6,225.5L1183.6,225.5z"/>
	<path class="car" fill="#FF3333" d="M710.6,283.2c0-11.5,0.1-23-0.1-34.5c-0.1-3.3,0.9-4.3,4.2-4.2c6.3,0.3,12.6,0.2,19,0
		c2.8-0.1,3.8,0.8,3.7,3.7c-0.1,23.6-0.1,47.3,0,70.9c0,2.9-0.9,3.7-3.7,3.7c-6.3-0.2-12.7-0.2-19,0c-3.3,0.1-4.2-0.9-4.2-4.2
		C710.7,306.8,710.6,295,710.6,283.2z M761.6,256.7c0-8.8,6.7-15.6,15.4-15.5c8.6,0.1,15.4,7,15.3,15.7c-0.1,8.4-6.9,15.2-15.2,15.3
		C768.5,272.3,761.6,265.4,761.6,256.7z M693.8,256.7c0,8.6-7,15.5-15.6,15.5c-8.5-0.1-15.4-7.2-15.3-15.8
		c0.1-8.4,6.9-15.1,15.3-15.2C686.9,241.1,693.8,248.1,693.8,256.7z"/>
</g>
<g>
	<path class="guru" fill="#0099FF" d="M2580.5,206.7c-1.6,1.4-1.5,3.6-2.2,5.3c-6.8,17.8-24.3,27.7-43.2,24.4c-17.8-3.1-31.1-19-31.4-37.4
		c-0.3-18.1,12.6-34,30.8-37.9c18.5-4,37.2,6.6,43.9,24.7c0.6,1.6,0.3,3.7,2,4.9C2580.5,196,2580.5,201.4,2580.5,206.7L2580.5,206.7
		z M2542.5,166.4c-18-0.1-31.4,13.6-31.6,32.1c-0.2,18.1,13.7,32.8,31.1,33c17.4,0.2,31.4-14.2,31.5-32.5
		C2573.6,180.4,2560.4,166.5,2542.5,166.4L2542.5,166.4z"/>
	<path class="guru" fill="#0099FF" d="M2560.1,220.5c-4.3,1.5-7.2,0.3-9.3-3.9c-2.1-4.1-5.1-7.8-7.3-11.9c-1.7-3.3-4.4-3.3-7.2-2.8
		c-3.4,0.6-1.6,3.5-1.8,5.3c-0.3,3.5-0.2,7,0,10.5c0.1,2.7-1.1,3.3-3.6,3.3s-3.6-0.7-3.5-3.4c0.1-12.6,0.1-25.3,0-37.9
		c0-2.2,0.6-3.4,3.1-3.3c6,0.2,12-0.1,17.9,0.2c7.1,0.4,10.9,4,11.8,10.5c0.9,6.6-1.7,11.1-8.4,13.3c-3.4,1.1-2.3,2.3-1.1,4.2
		l9.3,14.7C2560.3,219.7,2560.1,220.1,2560.1,220.5L2560.1,220.5z M2534.5,189c0,8,0,8,7.8,7.2c1.8-0.2,3.6-0.2,5.4-0.5
		c3.6-0.6,5.5-2.9,5.6-6.5c0.1-3.3-1.5-5.8-4.9-6.5c-2.2-0.5-4.6-0.8-6.9-0.8C2533.2,181.9,2534.6,181,2534.5,189L2534.5,189z"/>
</g>
</svg>
